<svg xmlns="http://www.w3.org/2000/svg" viewBox="0 0 64 64">
  <rect width="64" height="64" rx="14" fill="#f4f1ea"/>
  <g transform="translate(10,19.7) scale(0.5859) translate(-22.28,-49.87)">
    <path fill="#0c1f39" d="M68.85,61.82l-20.13,21.52-19.5-21.45-.12,29.91-6.82.02.02-41.95h5.13s21.34,23.53,21.34,23.53l16.18-17.25,6.05-6.22c-.62,4.02-1.29,7.86-2.16,11.88Z"/>
    <path fill="#0c1f39" d="M90.11,91.86l-4.48-7.02-8.24-12.68-14.2,19.68c-2.69-.02-4.98-.01-7.54-.17l18.11-24.3,3.01-8.88,8.9,14.04,11.73,18.89c-2.26.96-3.96-.12-7.3.43Z"/>
  </g>
</svg>
