<?xml version="1.0" encoding="UTF-8"?>
<svg id="Layer_1" xmlns="http://www.w3.org/2000/svg" version="1.1" viewBox="0 0 255.12 141.73">
  <!-- Generator: Adobe Illustrator 30.2.1, SVG Export Plug-In . SVG Version: 2.1.1 Build 1)  -->
  <defs>
    <style>
      .st0 {
        font-family: Cairo-Medium, Cairo;
        font-size: 6.03px;
        font-weight: 500;
      }

      .st0, .st1, .st2 {
        fill: #0c1f39;
      }

      .st1 {
        font-family: Cairo-Bold, Cairo;
        font-size: 19.01px;
        font-weight: 700;
      }
    </style>
  </defs>
  <g>
    <path class="st2" d="M68.85,61.82l-20.13,21.52-19.5-21.45-.12,29.91-6.82.02.02-41.95h5.13s21.34,23.53,21.34,23.53l16.18-17.25,6.05-6.22c-.62,4.02-1.29,7.86-2.16,11.88Z"/>
    <path class="st2" d="M90.11,91.86l-4.48-7.02-8.24-12.68-14.2,19.68c-2.69-.02-4.98-.01-7.54-.17l18.11-24.3,3.01-8.88,8.9,14.04,11.73,18.89c-2.26.96-3.96-.12-7.3.43Z"/>
  </g>
  <g>
    <text class="st1" transform="translate(110.68 72.25)"><tspan x="0" y="0">MOHAMED ALI</tspan></text>
    <text class="st0" transform="translate(110.31 83.03)"><tspan x="0" y="0">SENIOR BUSINESS DEVELOPER</tspan></text>
  </g>
  <rect class="st2" x="102.34" y="50.02" width="2.56" height="41.69"/>
</svg>